<?xml version="1.0" standalone="no"?>
<!DOCTYPE svg PUBLIC "-//W3C//DTD SVG 20010904//EN"
 "http://www.w3.org/TR/2001/REC-SVG-20010904/DTD/svg10.dtd">
<svg version="1.0" xmlns="http://www.w3.org/2000/svg"
 width="1080.000000pt" height="1080.000000pt" viewBox="0 0 1080.000000 1080.000000"
 preserveAspectRatio="xMidYMid meet">
<metadata>
Created by potrace 1.11, written by Peter Selinger 2001-2013
</metadata>
<g transform="translate(0.000000,1080.000000) scale(0.100000,-0.100000)"
fill="#000000" stroke="none">
<path d="M7417 10052 c-17 -4 -44 -47 -287 -467 -201 -347 -290 -504 -290
-509 0 -3 471 -6 1048 -5 576 0 1085 0 1131 -1 l83 0 -14 -22 c-14 -21 -176
-300 -237 -409 -14 -25 -91 -158 -171 -297 l-145 -251 -1135 -1 -1135 0 -258
-448 c-141 -246 -269 -466 -283 -489 l-25 -43 1700 0 1700 0 37 63 c20 34 131
226 247 427 274 476 281 488 311 536 14 23 26 47 26 53 0 6 5 11 10 11 6 0 10
4 10 9 0 5 32 64 72 132 39 68 80 140 91 159 10 19 52 91 92 160 40 69 121
208 179 310 58 102 110 192 116 200 11 19 118 204 240 415 51 88 101 174 110
190 10 17 49 85 88 153 l70 122 -91 0 c-1063 3 -3278 4 -3290 2z"/>
<path d="M593 6097 c-217 -327 -367 -651 -467 -1007 -38 -137 -81 -343 -91
-434 -4 -31 -8 -67 -11 -79 -12 -61 -19 -214 -19 -412 1 -229 6 -318 30 -480
4 -28 8 -59 10 -70 27 -201 132 -558 232 -795 214 -503 584 -991 998 -1318 44
-35 89 -70 99 -79 38 -31 282 -190 361 -235 232 -132 545 -262 795 -329 25 -7
50 -14 55 -15 48 -13 236 -52 280 -59 22 -3 51 -7 65 -10 35 -7 93 -13 180
-20 41 -4 89 -8 105 -11 37 -5 384 -4 445 1 25 2 72 7 105 10 33 3 80 8 105
11 25 2 70 9 100 14 30 5 71 12 90 15 56 9 289 65 360 87 851 261 1535 800
1982 1562 49 83 93 158 98 166 5 8 21 38 36 65 14 28 31 57 38 65 6 8 16 24
22 35 28 52 247 431 254 440 4 6 24 42 45 80 20 39 44 77 51 86 8 8 14 19 14
22 0 4 18 37 40 73 22 36 40 67 40 69 0 2 37 65 81 141 45 77 94 162 110 189
15 28 59 104 97 170 l70 120 -556 3 c-307 1 -562 0 -568 -2 -10 -4 -55 -78
-348 -586 -81 -140 -152 -262 -157 -270 -5 -8 -66 -114 -135 -235 -184 -320
-281 -453 -464 -635 -112 -111 -128 -126 -230 -206 -143 -113 -367 -245 -550
-323 -144 -62 -415 -139 -549 -157 -26 -3 -49 -8 -52 -10 -3 -1 -37 -6 -75
-10 -257 -24 -452 -19 -699 21 -213 33 -490 126 -690 230 -140 73 -140 73
-239 138 -504 330 -875 848 -1024 1432 -57 220 -72 334 -76 580 -3 158 2 263
19 375 6 45 42 232 50 260 53 203 141 421 245 605 18 33 122 214 232 403 109
189 198 345 198 348 0 2 -251 4 -557 4 l-558 0 -22 -33z"/>
<path d="M2856 6115 c-3 -9 -115 -206 -250 -438 -134 -232 -253 -438 -264
-457 -10 -19 -61 -107 -112 -195 -104 -178 -149 -271 -190 -390 -81 -233 -98
-514 -45 -765 56 -272 190 -523 386 -721 242 -247 497 -377 854 -437 53 -9
336 -9 403 0 156 21 367 93 514 175 271 152 435 328 636 683 19 34 143 249
350 605 58 99 114 196 124 215 11 19 37 64 58 100 21 36 47 81 58 100 37 66
204 355 264 458 l60 102 1133 0 1133 0 119 208 c66 114 170 295 233 402 62
107 124 215 138 240 14 25 36 62 49 82 12 21 23 40 23 43 0 3 -764 5 -1697 5
l-1698 0 -25 -42 c-14 -24 -36 -63 -50 -88 -14 -25 -38 -64 -53 -87 -15 -24
-27 -45 -27 -47 0 -3 -14 -29 -31 -58 -18 -29 -84 -143 -147 -253 -63 -110
-123 -213 -133 -230 -10 -16 -29 -48 -41 -70 -12 -22 -28 -49 -35 -60 -7 -11
-18 -31 -25 -45 -7 -14 -32 -56 -54 -95 -23 -38 -51 -86 -62 -105 -10 -19 -92
-161 -182 -315 -89 -154 -172 -298 -185 -320 -12 -22 -36 -63 -52 -91 -17 -27
-43 -72 -58 -100 -160 -289 -221 -356 -378 -416 -60 -24 -197 -32 -267 -17
-78 17 -182 74 -239 132 -122 124 -169 281 -135 446 16 78 26 100 110 243 35
60 64 111 64 114 0 3 8 17 19 32 10 15 80 133 154 262 110 191 678 1175 694
1203 2 4 -252 7 -565 7 -503 0 -571 -2 -576 -15z"/>
</g>
</svg>
